<mxfile host="app.diagrams.net" modified="2024-04-19T14:32:38.673Z" agent="Mozilla/5.0 (X11; Linux x86_64; rv:124.0) Gecko/20100101 Firefox/124.0" etag="kjt6Apv2jQ4Zl1C3HiNb" version="24.2.5" type="github" pages="2">
  <diagram name="base" id="4o6CYYe0LKN0wAGEkGuZ">
    <mxGraphModel dx="788" dy="582" grid="1" gridSize="10" guides="1" tooltips="1" connect="1" arrows="1" fold="1" page="1" pageScale="1" pageWidth="827" pageHeight="1169" math="0" shadow="0">
      <root>
        <mxCell id="0" />
        <mxCell id="1" parent="0" />
        <mxCell id="vpbeKz68ivnJ3yfsuHuT-48" style="edgeStyle=orthogonalEdgeStyle;rounded=0;orthogonalLoop=1;jettySize=auto;html=1;" parent="1" source="6orOFVW930C27pSFWP6E-1" target="6orOFVW930C27pSFWP6E-9" edge="1">
          <mxGeometry relative="1" as="geometry" />
        </mxCell>
        <mxCell id="vpbeKz68ivnJ3yfsuHuT-49" style="edgeStyle=orthogonalEdgeStyle;rounded=0;orthogonalLoop=1;jettySize=auto;html=1;" parent="1" source="6orOFVW930C27pSFWP6E-1" target="vpbeKz68ivnJ3yfsuHuT-47" edge="1">
          <mxGeometry relative="1" as="geometry" />
        </mxCell>
        <mxCell id="6orOFVW930C27pSFWP6E-1" value="ActionServerBase" style="swimlane;fontStyle=1;align=center;verticalAlign=top;childLayout=stackLayout;horizontal=1;startSize=26;horizontalStack=0;resizeParent=1;resizeParentMax=0;resizeLast=0;collapsible=1;marginBottom=0;whiteSpace=wrap;html=1;" parent="1" vertex="1">
          <mxGeometry x="620" y="203" width="160" height="164" as="geometry">
            <mxRectangle x="620" y="277" width="130" height="30" as="alternateBounds" />
          </mxGeometry>
        </mxCell>
        <mxCell id="6orOFVW930C27pSFWP6E-2" value="+ field: type" style="text;strokeColor=none;fillColor=none;align=left;verticalAlign=top;spacingLeft=4;spacingRight=4;overflow=hidden;rotatable=0;points=[[0,0.5],[1,0.5]];portConstraint=eastwest;whiteSpace=wrap;html=1;" parent="6orOFVW930C27pSFWP6E-1" vertex="1">
          <mxGeometry y="26" width="160" height="26" as="geometry" />
        </mxCell>
        <mxCell id="6orOFVW930C27pSFWP6E-3" value="" style="line;strokeWidth=1;fillColor=none;align=left;verticalAlign=middle;spacingTop=-1;spacingLeft=3;spacingRight=3;rotatable=0;labelPosition=right;points=[];portConstraint=eastwest;strokeColor=inherit;" parent="6orOFVW930C27pSFWP6E-1" vertex="1">
          <mxGeometry y="52" width="160" height="8" as="geometry" />
        </mxCell>
        <mxCell id="vpbeKz68ivnJ3yfsuHuT-60" value="+ move_to_positions()" style="text;strokeColor=none;fillColor=none;align=left;verticalAlign=top;spacingLeft=4;spacingRight=4;overflow=hidden;rotatable=0;points=[[0,0.5],[1,0.5]];portConstraint=eastwest;whiteSpace=wrap;html=1;" parent="6orOFVW930C27pSFWP6E-1" vertex="1">
          <mxGeometry y="60" width="160" height="26" as="geometry" />
        </mxCell>
        <mxCell id="vpbeKz68ivnJ3yfsuHuT-62" value="+ stop() = 0" style="text;strokeColor=none;fillColor=none;align=left;verticalAlign=top;spacingLeft=4;spacingRight=4;overflow=hidden;rotatable=0;points=[[0,0.5],[1,0.5]];portConstraint=eastwest;whiteSpace=wrap;html=1;" parent="6orOFVW930C27pSFWP6E-1" vertex="1">
          <mxGeometry y="86" width="160" height="26" as="geometry" />
        </mxCell>
        <mxCell id="vpbeKz68ivnJ3yfsuHuT-61" value="- track_joint_trajectory()" style="text;strokeColor=none;fillColor=none;align=left;verticalAlign=top;spacingLeft=4;spacingRight=4;overflow=hidden;rotatable=0;points=[[0,0.5],[1,0.5]];portConstraint=eastwest;whiteSpace=wrap;html=1;" parent="6orOFVW930C27pSFWP6E-1" vertex="1">
          <mxGeometry y="112" width="160" height="26" as="geometry" />
        </mxCell>
        <mxCell id="vpbeKz68ivnJ3yfsuHuT-66" value="- read_joint_values()" style="text;strokeColor=none;fillColor=none;align=left;verticalAlign=top;spacingLeft=4;spacingRight=4;overflow=hidden;rotatable=0;points=[[0,0.5],[1,0.5]];portConstraint=eastwest;whiteSpace=wrap;html=1;" parent="6orOFVW930C27pSFWP6E-1" vertex="1">
          <mxGeometry y="138" width="160" height="26" as="geometry" />
        </mxCell>
        <mxCell id="6orOFVW930C27pSFWP6E-9" value="PositionControlServer" style="swimlane;fontStyle=1;align=center;verticalAlign=top;childLayout=stackLayout;horizontal=1;startSize=26;horizontalStack=0;resizeParent=1;resizeParentMax=0;resizeLast=0;collapsible=1;marginBottom=0;whiteSpace=wrap;html=1;" parent="1" vertex="1">
          <mxGeometry x="390" y="170" width="150" height="86" as="geometry">
            <mxRectangle x="390" y="170" width="150" height="30" as="alternateBounds" />
          </mxGeometry>
        </mxCell>
        <mxCell id="vpbeKz68ivnJ3yfsuHuT-54" value="+ field: type" style="text;strokeColor=none;fillColor=none;align=left;verticalAlign=top;spacingLeft=4;spacingRight=4;overflow=hidden;rotatable=0;points=[[0,0.5],[1,0.5]];portConstraint=eastwest;whiteSpace=wrap;html=1;" parent="6orOFVW930C27pSFWP6E-9" vertex="1">
          <mxGeometry y="26" width="150" height="26" as="geometry" />
        </mxCell>
        <mxCell id="vpbeKz68ivnJ3yfsuHuT-57" value="" style="line;strokeWidth=1;fillColor=none;align=left;verticalAlign=middle;spacingTop=-1;spacingLeft=3;spacingRight=3;rotatable=0;labelPosition=right;points=[];portConstraint=eastwest;strokeColor=inherit;" parent="6orOFVW930C27pSFWP6E-9" vertex="1">
          <mxGeometry y="52" width="150" height="8" as="geometry" />
        </mxCell>
        <mxCell id="vpbeKz68ivnJ3yfsuHuT-59" value="+ stop()" style="text;strokeColor=none;fillColor=none;align=left;verticalAlign=top;spacingLeft=4;spacingRight=4;overflow=hidden;rotatable=0;points=[[0,0.5],[1,0.5]];portConstraint=eastwest;whiteSpace=wrap;html=1;" parent="6orOFVW930C27pSFWP6E-9" vertex="1">
          <mxGeometry y="60" width="150" height="26" as="geometry" />
        </mxCell>
        <mxCell id="vpbeKz68ivnJ3yfsuHuT-50" style="edgeStyle=orthogonalEdgeStyle;rounded=0;orthogonalLoop=1;jettySize=auto;html=1;" parent="1" source="vpbeKz68ivnJ3yfsuHuT-1" target="vpbeKz68ivnJ3yfsuHuT-35" edge="1">
          <mxGeometry relative="1" as="geometry" />
        </mxCell>
        <mxCell id="vpbeKz68ivnJ3yfsuHuT-51" style="edgeStyle=orthogonalEdgeStyle;rounded=0;orthogonalLoop=1;jettySize=auto;html=1;" parent="1" source="vpbeKz68ivnJ3yfsuHuT-1" target="vpbeKz68ivnJ3yfsuHuT-40" edge="1">
          <mxGeometry relative="1" as="geometry" />
        </mxCell>
        <mxCell id="vpbeKz68ivnJ3yfsuHuT-1" value="SerialLinkBase" style="swimlane;fontStyle=1;align=center;verticalAlign=top;childLayout=stackLayout;horizontal=1;startSize=26;horizontalStack=0;resizeParent=1;resizeParentMax=0;resizeLast=0;collapsible=1;marginBottom=0;whiteSpace=wrap;html=1;" parent="1" vertex="1" collapsed="1">
          <mxGeometry x="40" y="277" width="120" height="30" as="geometry">
            <mxRectangle x="500" y="40" width="320" height="866" as="alternateBounds" />
          </mxGeometry>
        </mxCell>
        <mxCell id="vpbeKz68ivnJ3yfsuHuT-2" value="- _cartesianDamping : Matrix" style="text;strokeColor=none;fillColor=none;align=left;verticalAlign=top;spacingLeft=4;spacingRight=4;overflow=hidden;rotatable=0;points=[[0,0.5],[1,0.5]];portConstraint=eastwest;whiteSpace=wrap;html=1;" parent="vpbeKz68ivnJ3yfsuHuT-1" vertex="1">
          <mxGeometry y="26" width="320" height="26" as="geometry" />
        </mxCell>
        <mxCell id="vpbeKz68ivnJ3yfsuHuT-3" value="- _cartesianStiffness : Matrix" style="text;strokeColor=none;fillColor=none;align=left;verticalAlign=top;spacingLeft=4;spacingRight=4;overflow=hidden;rotatable=0;points=[[0,0.5],[1,0.5]];portConstraint=eastwest;whiteSpace=wrap;html=1;" parent="vpbeKz68ivnJ3yfsuHuT-1" vertex="1">
          <mxGeometry y="52" width="320" height="26" as="geometry" />
        </mxCell>
        <mxCell id="vpbeKz68ivnJ3yfsuHuT-4" value="- _controlBarrierScalar : float" style="text;strokeColor=none;fillColor=none;align=left;verticalAlign=top;spacingLeft=4;spacingRight=4;overflow=hidden;rotatable=0;points=[[0,0.5],[1,0.5]];portConstraint=eastwest;whiteSpace=wrap;html=1;" parent="vpbeKz68ivnJ3yfsuHuT-1" vertex="1">
          <mxGeometry y="78" width="320" height="26" as="geometry" />
        </mxCell>
        <mxCell id="vpbeKz68ivnJ3yfsuHuT-5" value="- _controlFrequency : int" style="text;strokeColor=none;fillColor=none;align=left;verticalAlign=top;spacingLeft=4;spacingRight=4;overflow=hidden;rotatable=0;points=[[0,0.5],[1,0.5]];portConstraint=eastwest;whiteSpace=wrap;html=1;" parent="vpbeKz68ivnJ3yfsuHuT-1" vertex="1">
          <mxGeometry y="104" width="320" height="26" as="geometry" />
        </mxCell>
        <mxCell id="vpbeKz68ivnJ3yfsuHuT-6" value="- _endpointFrame : ReferenceFrame*" style="text;strokeColor=none;fillColor=none;align=left;verticalAlign=top;spacingLeft=4;spacingRight=4;overflow=hidden;rotatable=0;points=[[0,0.5],[1,0.5]];portConstraint=eastwest;whiteSpace=wrap;html=1;" parent="vpbeKz68ivnJ3yfsuHuT-1" vertex="1">
          <mxGeometry y="130" width="320" height="26" as="geometry" />
        </mxCell>
        <mxCell id="vpbeKz68ivnJ3yfsuHuT-7" value="- _gainFormat : Matrix" style="text;strokeColor=none;fillColor=none;align=left;verticalAlign=top;spacingLeft=4;spacingRight=4;overflow=hidden;rotatable=0;points=[[0,0.5],[1,0.5]];portConstraint=eastwest;whiteSpace=wrap;html=1;" parent="vpbeKz68ivnJ3yfsuHuT-1" vertex="1">
          <mxGeometry y="156" width="320" height="26" as="geometry" />
        </mxCell>
        <mxCell id="vpbeKz68ivnJ3yfsuHuT-8" value="- _jacobian : Matrix" style="text;strokeColor=none;fillColor=none;align=left;verticalAlign=top;spacingLeft=4;spacingRight=4;overflow=hidden;rotatable=0;points=[[0,0.5],[1,0.5]];portConstraint=eastwest;whiteSpace=wrap;html=1;" parent="vpbeKz68ivnJ3yfsuHuT-1" vertex="1">
          <mxGeometry y="182" width="320" height="26" as="geometry" />
        </mxCell>
        <mxCell id="vpbeKz68ivnJ3yfsuHuT-9" value="- _forceEllipsoid : Matrix" style="text;strokeColor=none;fillColor=none;align=left;verticalAlign=top;spacingLeft=4;spacingRight=4;overflow=hidden;rotatable=0;points=[[0,0.5],[1,0.5]];portConstraint=eastwest;whiteSpace=wrap;html=1;" parent="vpbeKz68ivnJ3yfsuHuT-1" vertex="1">
          <mxGeometry y="208" width="320" height="26" as="geometry" />
        </mxCell>
        <mxCell id="vpbeKz68ivnJ3yfsuHuT-10" value="- _jointPositionGain : float" style="text;strokeColor=none;fillColor=none;align=left;verticalAlign=top;spacingLeft=4;spacingRight=4;overflow=hidden;rotatable=0;points=[[0,0.5],[1,0.5]];portConstraint=eastwest;whiteSpace=wrap;html=1;" parent="vpbeKz68ivnJ3yfsuHuT-1" vertex="1">
          <mxGeometry y="234" width="320" height="26" as="geometry" />
        </mxCell>
        <mxCell id="vpbeKz68ivnJ3yfsuHuT-11" value="- _jointVelocityGain : float" style="text;strokeColor=none;fillColor=none;align=left;verticalAlign=top;spacingLeft=4;spacingRight=4;overflow=hidden;rotatable=0;points=[[0,0.5],[1,0.5]];portConstraint=eastwest;whiteSpace=wrap;html=1;" parent="vpbeKz68ivnJ3yfsuHuT-1" vertex="1">
          <mxGeometry y="260" width="320" height="26" as="geometry" />
        </mxCell>
        <mxCell id="vpbeKz68ivnJ3yfsuHuT-12" value="- _manipulability : float" style="text;strokeColor=none;fillColor=none;align=left;verticalAlign=top;spacingLeft=4;spacingRight=4;overflow=hidden;rotatable=0;points=[[0,0.5],[1,0.5]];portConstraint=eastwest;whiteSpace=wrap;html=1;" parent="vpbeKz68ivnJ3yfsuHuT-1" vertex="1">
          <mxGeometry y="286" width="320" height="26" as="geometry" />
        </mxCell>
        <mxCell id="vpbeKz68ivnJ3yfsuHuT-13" value="- _minManipulability : float" style="text;strokeColor=none;fillColor=none;align=left;verticalAlign=top;spacingLeft=4;spacingRight=4;overflow=hidden;rotatable=0;points=[[0,0.5],[1,0.5]];portConstraint=eastwest;whiteSpace=wrap;html=1;" parent="vpbeKz68ivnJ3yfsuHuT-1" vertex="1">
          <mxGeometry y="312" width="320" height="26" as="geometry" />
        </mxCell>
        <mxCell id="vpbeKz68ivnJ3yfsuHuT-14" value="- _maxJointAcceleration : float" style="text;strokeColor=none;fillColor=none;align=left;verticalAlign=top;spacingLeft=4;spacingRight=4;overflow=hidden;rotatable=0;points=[[0,0.5],[1,0.5]];portConstraint=eastwest;whiteSpace=wrap;html=1;" parent="vpbeKz68ivnJ3yfsuHuT-1" vertex="1">
          <mxGeometry y="338" width="320" height="26" as="geometry" />
        </mxCell>
        <mxCell id="vpbeKz68ivnJ3yfsuHuT-15" value="- _robot : KinematicTree*" style="text;strokeColor=none;fillColor=none;align=left;verticalAlign=top;spacingLeft=4;spacingRight=4;overflow=hidden;rotatable=0;points=[[0,0.5],[1,0.5]];portConstraint=eastwest;whiteSpace=wrap;html=1;" parent="vpbeKz68ivnJ3yfsuHuT-1" vertex="1">
          <mxGeometry y="364" width="320" height="26" as="geometry" />
        </mxCell>
        <mxCell id="vpbeKz68ivnJ3yfsuHuT-16" value="- _payload : Payload*" style="text;strokeColor=none;fillColor=none;align=left;verticalAlign=top;spacingLeft=4;spacingRight=4;overflow=hidden;rotatable=0;points=[[0,0.5],[1,0.5]];portConstraint=eastwest;whiteSpace=wrap;html=1;" parent="vpbeKz68ivnJ3yfsuHuT-1" vertex="1">
          <mxGeometry y="390" width="320" height="26" as="geometry" />
        </mxCell>
        <mxCell id="vpbeKz68ivnJ3yfsuHuT-17" value="- _redundantTask : Vector" style="text;strokeColor=none;fillColor=none;align=left;verticalAlign=top;spacingLeft=4;spacingRight=4;overflow=hidden;rotatable=0;points=[[0,0.5],[1,0.5]];portConstraint=eastwest;whiteSpace=wrap;html=1;" parent="vpbeKz68ivnJ3yfsuHuT-1" vertex="1">
          <mxGeometry y="416" width="320" height="26" as="geometry" />
        </mxCell>
        <mxCell id="vpbeKz68ivnJ3yfsuHuT-18" value="- _redundantTaskSet : bool" style="text;strokeColor=none;fillColor=none;align=left;verticalAlign=top;spacingLeft=4;spacingRight=4;overflow=hidden;rotatable=0;points=[[0,0.5],[1,0.5]];portConstraint=eastwest;whiteSpace=wrap;html=1;" parent="vpbeKz68ivnJ3yfsuHuT-1" vertex="1">
          <mxGeometry y="442" width="320" height="26" as="geometry" />
        </mxCell>
        <mxCell id="vpbeKz68ivnJ3yfsuHuT-19" value="" style="line;strokeWidth=1;fillColor=none;align=left;verticalAlign=middle;spacingTop=-1;spacingLeft=3;spacingRight=3;rotatable=0;labelPosition=right;points=[];portConstraint=eastwest;strokeColor=inherit;" parent="vpbeKz68ivnJ3yfsuHuT-1" vertex="1">
          <mxGeometry y="468" width="320" height="8" as="geometry" />
        </mxCell>
        <mxCell id="vpbeKz68ivnJ3yfsuHuT-20" value="+ add_payload(Payload*) : bool" style="text;strokeColor=none;fillColor=none;align=left;verticalAlign=top;spacingLeft=4;spacingRight=4;overflow=hidden;rotatable=0;points=[[0,0.5],[1,0.5]];portConstraint=eastwest;whiteSpace=wrap;html=1;" parent="vpbeKz68ivnJ3yfsuHuT-1" vertex="1">
          <mxGeometry y="476" width="320" height="26" as="geometry" />
        </mxCell>
        <mxCell id="vpbeKz68ivnJ3yfsuHuT-21" value="+ endpoint_jacobian() : Matrix" style="text;strokeColor=none;fillColor=none;align=left;verticalAlign=top;spacingLeft=4;spacingRight=4;overflow=hidden;rotatable=0;points=[[0,0.5],[1,0.5]];portConstraint=eastwest;whiteSpace=wrap;html=1;" parent="vpbeKz68ivnJ3yfsuHuT-1" vertex="1">
          <mxGeometry y="502" width="320" height="26" as="geometry" />
        </mxCell>
        <mxCell id="vpbeKz68ivnJ3yfsuHuT-22" value="+ resolve_endpoint_motion(Vector) : Vector" style="text;strokeColor=none;fillColor=none;align=left;verticalAlign=top;spacingLeft=4;spacingRight=4;overflow=hidden;rotatable=0;points=[[0,0.5],[1,0.5]];portConstraint=eastwest;whiteSpace=wrap;html=1;" parent="vpbeKz68ivnJ3yfsuHuT-1" vertex="1">
          <mxGeometry y="528" width="320" height="26" as="geometry" />
        </mxCell>
        <mxCell id="vpbeKz68ivnJ3yfsuHuT-23" value="+ manipulability() : float" style="text;strokeColor=none;fillColor=none;align=left;verticalAlign=top;spacingLeft=4;spacingRight=4;overflow=hidden;rotatable=0;points=[[0,0.5],[1,0.5]];portConstraint=eastwest;whiteSpace=wrap;html=1;" parent="vpbeKz68ivnJ3yfsuHuT-1" vertex="1">
          <mxGeometry y="554" width="320" height="26" as="geometry" />
        </mxCell>
        <mxCell id="vpbeKz68ivnJ3yfsuHuT-24" value="+ manipulability_gradient() : Vector" style="text;strokeColor=none;fillColor=none;align=left;verticalAlign=top;spacingLeft=4;spacingRight=4;overflow=hidden;rotatable=0;points=[[0,0.5],[1,0.5]];portConstraint=eastwest;whiteSpace=wrap;html=1;" parent="vpbeKz68ivnJ3yfsuHuT-1" vertex="1">
          <mxGeometry y="580" width="320" height="26" as="geometry" />
        </mxCell>
        <mxCell id="vpbeKz68ivnJ3yfsuHuT-25" value="+ remove_payload() : void" style="text;strokeColor=none;fillColor=none;align=left;verticalAlign=top;spacingLeft=4;spacingRight=4;overflow=hidden;rotatable=0;points=[[0,0.5],[1,0.5]];portConstraint=eastwest;whiteSpace=wrap;html=1;" parent="vpbeKz68ivnJ3yfsuHuT-1" vertex="1">
          <mxGeometry y="606" width="320" height="26" as="geometry" />
        </mxCell>
        <mxCell id="vpbeKz68ivnJ3yfsuHuT-26" value="+ set_cartesian_gain_format(Matrix) : bool" style="text;strokeColor=none;fillColor=none;align=left;verticalAlign=top;spacingLeft=4;spacingRight=4;overflow=hidden;rotatable=0;points=[[0,0.5],[1,0.5]];portConstraint=eastwest;whiteSpace=wrap;html=1;" parent="vpbeKz68ivnJ3yfsuHuT-1" vertex="1">
          <mxGeometry y="632" width="320" height="26" as="geometry" />
        </mxCell>
        <mxCell id="vpbeKz68ivnJ3yfsuHuT-27" value="+ set_cartesian_gains(float, float) : bool" style="text;strokeColor=none;fillColor=none;align=left;verticalAlign=top;spacingLeft=4;spacingRight=4;overflow=hidden;rotatable=0;points=[[0,0.5],[1,0.5]];portConstraint=eastwest;whiteSpace=wrap;html=1;" parent="vpbeKz68ivnJ3yfsuHuT-1" vertex="1">
          <mxGeometry y="658" width="320" height="26" as="geometry" />
        </mxCell>
        <mxCell id="vpbeKz68ivnJ3yfsuHuT-28" value="+ set_joint_gains(float, float) : bool" style="text;strokeColor=none;fillColor=none;align=left;verticalAlign=top;spacingLeft=4;spacingRight=4;overflow=hidden;rotatable=0;points=[[0,0.5],[1,0.5]];portConstraint=eastwest;whiteSpace=wrap;html=1;" parent="vpbeKz68ivnJ3yfsuHuT-1" vertex="1">
          <mxGeometry y="684" width="320" height="26" as="geometry" />
        </mxCell>
        <mxCell id="vpbeKz68ivnJ3yfsuHuT-29" value="+ set_max_joint_accel(float) : bool" style="text;strokeColor=none;fillColor=none;align=left;verticalAlign=top;spacingLeft=4;spacingRight=4;overflow=hidden;rotatable=0;points=[[0,0.5],[1,0.5]];portConstraint=eastwest;whiteSpace=wrap;html=1;" parent="vpbeKz68ivnJ3yfsuHuT-1" vertex="1">
          <mxGeometry y="710" width="320" height="26" as="geometry" />
        </mxCell>
        <mxCell id="vpbeKz68ivnJ3yfsuHuT-30" value="+ set_redundant_task(Vector) : bool" style="text;strokeColor=none;fillColor=none;align=left;verticalAlign=top;spacingLeft=4;spacingRight=4;overflow=hidden;rotatable=0;points=[[0,0.5],[1,0.5]];portConstraint=eastwest;whiteSpace=wrap;html=1;" parent="vpbeKz68ivnJ3yfsuHuT-1" vertex="1">
          <mxGeometry y="736" width="320" height="26" as="geometry" />
        </mxCell>
        <mxCell id="vpbeKz68ivnJ3yfsuHuT-31" value="+ track_endpoint_trajectory(Pose, Vector, Vector) : Vector" style="text;strokeColor=none;fillColor=none;align=left;verticalAlign=top;spacingLeft=4;spacingRight=4;overflow=hidden;rotatable=0;points=[[0,0.5],[1,0.5]];portConstraint=eastwest;whiteSpace=wrap;html=1;" parent="vpbeKz68ivnJ3yfsuHuT-1" vertex="1">
          <mxGeometry y="762" width="320" height="26" as="geometry" />
        </mxCell>
        <mxCell id="vpbeKz68ivnJ3yfsuHuT-32" value="+ track_joint_trajectory(Vector, Vector, Vector) : Vector" style="text;strokeColor=none;fillColor=none;align=left;verticalAlign=top;spacingLeft=4;spacingRight=4;overflow=hidden;rotatable=0;points=[[0,0.5],[1,0.5]];portConstraint=eastwest;whiteSpace=wrap;html=1;" parent="vpbeKz68ivnJ3yfsuHuT-1" vertex="1">
          <mxGeometry y="788" width="320" height="26" as="geometry" />
        </mxCell>
        <mxCell id="vpbeKz68ivnJ3yfsuHuT-33" value="+ update_state() : void" style="text;strokeColor=none;fillColor=none;align=left;verticalAlign=top;spacingLeft=4;spacingRight=4;overflow=hidden;rotatable=0;points=[[0,0.5],[1,0.5]];portConstraint=eastwest;whiteSpace=wrap;html=1;" parent="vpbeKz68ivnJ3yfsuHuT-1" vertex="1">
          <mxGeometry y="814" width="320" height="26" as="geometry" />
        </mxCell>
        <mxCell id="vpbeKz68ivnJ3yfsuHuT-34" value="# compute_control_limits(int) : Limits" style="text;strokeColor=none;fillColor=none;align=left;verticalAlign=top;spacingLeft=4;spacingRight=4;overflow=hidden;rotatable=0;points=[[0,0.5],[1,0.5]];portConstraint=eastwest;whiteSpace=wrap;html=1;" parent="vpbeKz68ivnJ3yfsuHuT-1" vertex="1">
          <mxGeometry y="840" width="320" height="26" as="geometry" />
        </mxCell>
        <mxCell id="vpbeKz68ivnJ3yfsuHuT-52" style="edgeStyle=orthogonalEdgeStyle;rounded=0;orthogonalLoop=1;jettySize=auto;html=1;" parent="1" source="vpbeKz68ivnJ3yfsuHuT-35" target="6orOFVW930C27pSFWP6E-9" edge="1">
          <mxGeometry relative="1" as="geometry" />
        </mxCell>
        <mxCell id="vpbeKz68ivnJ3yfsuHuT-35" value="SerialPositionControl" style="swimlane;fontStyle=1;align=center;verticalAlign=top;childLayout=stackLayout;horizontal=1;startSize=26;horizontalStack=0;resizeParent=1;resizeParentMax=0;resizeLast=0;collapsible=1;marginBottom=0;whiteSpace=wrap;html=1;" parent="1" vertex="1" collapsed="1">
          <mxGeometry x="163.13" y="198" width="150" height="30" as="geometry">
            <mxRectangle x="13.129999999999999" y="230" width="320" height="130" as="alternateBounds" />
          </mxGeometry>
        </mxCell>
        <mxCell id="vpbeKz68ivnJ3yfsuHuT-36" value="+ resolve_endpoint_motion(Vector) : Vector" style="text;strokeColor=none;fillColor=none;align=left;verticalAlign=top;spacingLeft=4;spacingRight=4;overflow=hidden;rotatable=0;points=[[0,0.5],[1,0.5]];portConstraint=eastwest;whiteSpace=wrap;html=1;" parent="vpbeKz68ivnJ3yfsuHuT-35" vertex="1">
          <mxGeometry y="26" width="320" height="26" as="geometry" />
        </mxCell>
        <mxCell id="vpbeKz68ivnJ3yfsuHuT-37" value="+ track_endpoint_trajectory(Pose, Vector, Vector) : Vector" style="text;strokeColor=none;fillColor=none;align=left;verticalAlign=top;spacingLeft=4;spacingRight=4;overflow=hidden;rotatable=0;points=[[0,0.5],[1,0.5]];portConstraint=eastwest;whiteSpace=wrap;html=1;" parent="vpbeKz68ivnJ3yfsuHuT-35" vertex="1">
          <mxGeometry y="52" width="320" height="26" as="geometry" />
        </mxCell>
        <mxCell id="vpbeKz68ivnJ3yfsuHuT-38" value="+ track_joint_trajectory(vector, vector, vector) : Vector" style="text;strokeColor=none;fillColor=none;align=left;verticalAlign=top;spacingLeft=4;spacingRight=4;overflow=hidden;rotatable=0;points=[[0,0.5],[1,0.5]];portConstraint=eastwest;whiteSpace=wrap;html=1;" parent="vpbeKz68ivnJ3yfsuHuT-35" vertex="1">
          <mxGeometry y="78" width="320" height="26" as="geometry" />
        </mxCell>
        <mxCell id="vpbeKz68ivnJ3yfsuHuT-39" value="# compute_control_limits(int) : Limits" style="text;strokeColor=none;fillColor=none;align=left;verticalAlign=top;spacingLeft=4;spacingRight=4;overflow=hidden;rotatable=0;points=[[0,0.5],[1,0.5]];portConstraint=eastwest;whiteSpace=wrap;html=1;" parent="vpbeKz68ivnJ3yfsuHuT-35" vertex="1">
          <mxGeometry y="104" width="320" height="26" as="geometry" />
        </mxCell>
        <mxCell id="vpbeKz68ivnJ3yfsuHuT-53" style="edgeStyle=orthogonalEdgeStyle;rounded=0;orthogonalLoop=1;jettySize=auto;html=1;" parent="1" source="vpbeKz68ivnJ3yfsuHuT-40" target="vpbeKz68ivnJ3yfsuHuT-47" edge="1">
          <mxGeometry relative="1" as="geometry" />
        </mxCell>
        <mxCell id="vpbeKz68ivnJ3yfsuHuT-40" value="SerialForceControl" style="swimlane;fontStyle=1;align=center;verticalAlign=top;childLayout=stackLayout;horizontal=1;startSize=26;horizontalStack=0;resizeParent=1;resizeParentMax=0;resizeLast=0;collapsible=1;marginBottom=0;whiteSpace=wrap;html=1;" parent="1" vertex="1" collapsed="1">
          <mxGeometry x="168.13" y="348" width="140" height="30" as="geometry">
            <mxRectangle x="13.129999999999999" y="40" width="325" height="164" as="alternateBounds" />
          </mxGeometry>
        </mxCell>
        <mxCell id="vpbeKz68ivnJ3yfsuHuT-41" value="- _jacobianDerivative : matrix" style="text;strokeColor=none;fillColor=none;align=left;verticalAlign=top;spacingLeft=4;spacingRight=4;overflow=hidden;rotatable=0;points=[[0,0.5],[1,0.5]];portConstraint=eastwest;whiteSpace=wrap;html=1;" parent="vpbeKz68ivnJ3yfsuHuT-40" vertex="1">
          <mxGeometry y="26" width="325" height="26" as="geometry" />
        </mxCell>
        <mxCell id="vpbeKz68ivnJ3yfsuHuT-42" value="" style="line;strokeWidth=1;fillColor=none;align=left;verticalAlign=middle;spacingTop=-1;spacingLeft=3;spacingRight=3;rotatable=0;labelPosition=right;points=[];portConstraint=eastwest;strokeColor=inherit;" parent="vpbeKz68ivnJ3yfsuHuT-40" vertex="1">
          <mxGeometry y="52" width="325" height="8" as="geometry" />
        </mxCell>
        <mxCell id="vpbeKz68ivnJ3yfsuHuT-43" value="+ resolve_endpoint_motion(Vector) : Vector" style="text;strokeColor=none;fillColor=none;align=left;verticalAlign=top;spacingLeft=4;spacingRight=4;overflow=hidden;rotatable=0;points=[[0,0.5],[1,0.5]];portConstraint=eastwest;whiteSpace=wrap;html=1;" parent="vpbeKz68ivnJ3yfsuHuT-40" vertex="1">
          <mxGeometry y="60" width="325" height="26" as="geometry" />
        </mxCell>
        <mxCell id="vpbeKz68ivnJ3yfsuHuT-44" value="+ track_endpoint_trajectory(Pose, Vector, Vector) : Vector" style="text;strokeColor=none;fillColor=none;align=left;verticalAlign=top;spacingLeft=4;spacingRight=4;overflow=hidden;rotatable=0;points=[[0,0.5],[1,0.5]];portConstraint=eastwest;whiteSpace=wrap;html=1;" parent="vpbeKz68ivnJ3yfsuHuT-40" vertex="1">
          <mxGeometry y="86" width="325" height="26" as="geometry" />
        </mxCell>
        <mxCell id="vpbeKz68ivnJ3yfsuHuT-45" value="+ track_joint_trajectory(Vector, Vector, Vector) : Vector" style="text;strokeColor=none;fillColor=none;align=left;verticalAlign=top;spacingLeft=4;spacingRight=4;overflow=hidden;rotatable=0;points=[[0,0.5],[1,0.5]];portConstraint=eastwest;whiteSpace=wrap;html=1;" parent="vpbeKz68ivnJ3yfsuHuT-40" vertex="1">
          <mxGeometry y="112" width="325" height="26" as="geometry" />
        </mxCell>
        <mxCell id="vpbeKz68ivnJ3yfsuHuT-46" value="# compute_control_limits(int) : Limits" style="text;strokeColor=none;fillColor=none;align=left;verticalAlign=top;spacingLeft=4;spacingRight=4;overflow=hidden;rotatable=0;points=[[0,0.5],[1,0.5]];portConstraint=eastwest;whiteSpace=wrap;html=1;" parent="vpbeKz68ivnJ3yfsuHuT-40" vertex="1">
          <mxGeometry y="138" width="325" height="26" as="geometry" />
        </mxCell>
        <mxCell id="vpbeKz68ivnJ3yfsuHuT-47" value="ForceControlServer" style="swimlane;fontStyle=1;align=center;verticalAlign=top;childLayout=stackLayout;horizontal=1;startSize=26;horizontalStack=0;resizeParent=1;resizeParentMax=0;resizeLast=0;collapsible=1;marginBottom=0;whiteSpace=wrap;html=1;" parent="1" vertex="1">
          <mxGeometry x="390" y="320" width="150" height="86" as="geometry">
            <mxRectangle x="390" y="320" width="150" height="30" as="alternateBounds" />
          </mxGeometry>
        </mxCell>
        <mxCell id="vpbeKz68ivnJ3yfsuHuT-55" value="+ field: type" style="text;strokeColor=none;fillColor=none;align=left;verticalAlign=top;spacingLeft=4;spacingRight=4;overflow=hidden;rotatable=0;points=[[0,0.5],[1,0.5]];portConstraint=eastwest;whiteSpace=wrap;html=1;" parent="vpbeKz68ivnJ3yfsuHuT-47" vertex="1">
          <mxGeometry y="26" width="150" height="26" as="geometry" />
        </mxCell>
        <mxCell id="vpbeKz68ivnJ3yfsuHuT-56" value="" style="line;strokeWidth=1;fillColor=none;align=left;verticalAlign=middle;spacingTop=-1;spacingLeft=3;spacingRight=3;rotatable=0;labelPosition=right;points=[];portConstraint=eastwest;strokeColor=inherit;" parent="vpbeKz68ivnJ3yfsuHuT-47" vertex="1">
          <mxGeometry y="52" width="150" height="8" as="geometry" />
        </mxCell>
        <mxCell id="vpbeKz68ivnJ3yfsuHuT-58" value="+ stop()" style="text;strokeColor=none;fillColor=none;align=left;verticalAlign=top;spacingLeft=4;spacingRight=4;overflow=hidden;rotatable=0;points=[[0,0.5],[1,0.5]];portConstraint=eastwest;whiteSpace=wrap;html=1;" parent="vpbeKz68ivnJ3yfsuHuT-47" vertex="1">
          <mxGeometry y="60" width="150" height="26" as="geometry" />
        </mxCell>
        <mxCell id="vpbeKz68ivnJ3yfsuHuT-63" value="RobotLibrary" style="shape=umlFrame;whiteSpace=wrap;html=1;pointerEvents=0;width=90;height=30;" parent="1" vertex="1">
          <mxGeometry x="30" y="120" width="300" height="300" as="geometry" />
        </mxCell>
        <mxCell id="vgtWHDoNtak8QW6DDmXx-62" value="serial_link_server" style="shape=umlFrame;whiteSpace=wrap;html=1;pointerEvents=0;width=104;height=30;" parent="1" vertex="1">
          <mxGeometry x="366" y="120" width="434" height="302" as="geometry" />
        </mxCell>
        <mxCell id="TAoXhGsMEbnR37dpOqKy-1" value="ActionServerBase" style="swimlane;fontStyle=1;align=center;verticalAlign=top;childLayout=stackLayout;horizontal=1;startSize=26;horizontalStack=0;resizeParent=1;resizeParentMax=0;resizeLast=0;collapsible=1;marginBottom=0;whiteSpace=wrap;html=1;" vertex="1" parent="1">
          <mxGeometry x="110" y="540" width="210" height="398" as="geometry">
            <mxRectangle x="620" y="277" width="130" height="30" as="alternateBounds" />
          </mxGeometry>
        </mxCell>
        <mxCell id="TAoXhGsMEbnR37dpOqKy-18" value="- server tfFollower" style="text;strokeColor=none;fillColor=none;align=left;verticalAlign=top;spacingLeft=4;spacingRight=4;overflow=hidden;rotatable=0;points=[[0,0.5],[1,0.5]];portConstraint=eastwest;whiteSpace=wrap;html=1;" vertex="1" parent="TAoXhGsMEbnR37dpOqKy-1">
          <mxGeometry y="26" width="210" height="26" as="geometry" />
        </mxCell>
        <mxCell id="TAoXhGsMEbnR37dpOqKy-20" value="- server singlePoseServer" style="text;strokeColor=none;fillColor=none;align=left;verticalAlign=top;spacingLeft=4;spacingRight=4;overflow=hidden;rotatable=0;points=[[0,0.5],[1,0.5]];portConstraint=eastwest;whiteSpace=wrap;html=1;" vertex="1" parent="TAoXhGsMEbnR37dpOqKy-1">
          <mxGeometry y="52" width="210" height="26" as="geometry" />
        </mxCell>
        <mxCell id="TAoXhGsMEbnR37dpOqKy-9" value="- server cartesianTrajServer" style="text;strokeColor=none;fillColor=none;align=left;verticalAlign=top;spacingLeft=4;spacingRight=4;overflow=hidden;rotatable=0;points=[[0,0.5],[1,0.5]];portConstraint=eastwest;whiteSpace=wrap;html=1;" vertex="1" parent="TAoXhGsMEbnR37dpOqKy-1">
          <mxGeometry y="78" width="210" height="26" as="geometry" />
        </mxCell>
        <mxCell id="TAoXhGsMEbnR37dpOqKy-19" value="- server singeJointPosServer" style="text;strokeColor=none;fillColor=none;align=left;verticalAlign=top;spacingLeft=4;spacingRight=4;overflow=hidden;rotatable=0;points=[[0,0.5],[1,0.5]];portConstraint=eastwest;whiteSpace=wrap;html=1;" vertex="1" parent="TAoXhGsMEbnR37dpOqKy-1">
          <mxGeometry y="104" width="210" height="26" as="geometry" />
        </mxCell>
        <mxCell id="TAoXhGsMEbnR37dpOqKy-2" value="- server jointTrajServer" style="text;strokeColor=none;fillColor=none;align=left;verticalAlign=top;spacingLeft=4;spacingRight=4;overflow=hidden;rotatable=0;points=[[0,0.5],[1,0.5]];portConstraint=eastwest;whiteSpace=wrap;html=1;" vertex="1" parent="TAoXhGsMEbnR37dpOqKy-1">
          <mxGeometry y="130" width="210" height="26" as="geometry" />
        </mxCell>
        <mxCell id="TAoXhGsMEbnR37dpOqKy-3" value="" style="line;strokeWidth=1;fillColor=none;align=left;verticalAlign=middle;spacingTop=-1;spacingLeft=3;spacingRight=3;rotatable=0;labelPosition=right;points=[];portConstraint=eastwest;strokeColor=inherit;" vertex="1" parent="TAoXhGsMEbnR37dpOqKy-1">
          <mxGeometry y="156" width="210" height="8" as="geometry" />
        </mxCell>
        <mxCell id="TAoXhGsMEbnR37dpOqKy-16" value="+ follow_transform()" style="text;strokeColor=none;fillColor=none;align=left;verticalAlign=top;spacingLeft=4;spacingRight=4;overflow=hidden;rotatable=0;points=[[0,0.5],[1,0.5]];portConstraint=eastwest;whiteSpace=wrap;html=1;" vertex="1" parent="TAoXhGsMEbnR37dpOqKy-1">
          <mxGeometry y="164" width="210" height="26" as="geometry" />
        </mxCell>
        <mxCell id="TAoXhGsMEbnR37dpOqKy-10" value="+ move_to_pose()" style="text;strokeColor=none;fillColor=none;align=left;verticalAlign=top;spacingLeft=4;spacingRight=4;overflow=hidden;rotatable=0;points=[[0,0.5],[1,0.5]];portConstraint=eastwest;whiteSpace=wrap;html=1;" vertex="1" parent="TAoXhGsMEbnR37dpOqKy-1">
          <mxGeometry y="190" width="210" height="26" as="geometry" />
        </mxCell>
        <mxCell id="TAoXhGsMEbnR37dpOqKy-12" value="+ move_to_poses()" style="text;strokeColor=none;fillColor=none;align=left;verticalAlign=top;spacingLeft=4;spacingRight=4;overflow=hidden;rotatable=0;points=[[0,0.5],[1,0.5]];portConstraint=eastwest;whiteSpace=wrap;html=1;" vertex="1" parent="TAoXhGsMEbnR37dpOqKy-1">
          <mxGeometry y="216" width="210" height="26" as="geometry" />
        </mxCell>
        <mxCell id="TAoXhGsMEbnR37dpOqKy-8" value="+ move_to_position()" style="text;strokeColor=none;fillColor=none;align=left;verticalAlign=top;spacingLeft=4;spacingRight=4;overflow=hidden;rotatable=0;points=[[0,0.5],[1,0.5]];portConstraint=eastwest;whiteSpace=wrap;html=1;" vertex="1" parent="TAoXhGsMEbnR37dpOqKy-1">
          <mxGeometry y="242" width="210" height="26" as="geometry" />
        </mxCell>
        <mxCell id="TAoXhGsMEbnR37dpOqKy-4" value="+ move_to_positions()" style="text;strokeColor=none;fillColor=none;align=left;verticalAlign=top;spacingLeft=4;spacingRight=4;overflow=hidden;rotatable=0;points=[[0,0.5],[1,0.5]];portConstraint=eastwest;whiteSpace=wrap;html=1;" vertex="1" parent="TAoXhGsMEbnR37dpOqKy-1">
          <mxGeometry y="268" width="210" height="26" as="geometry" />
        </mxCell>
        <mxCell id="TAoXhGsMEbnR37dpOqKy-5" value="- stop() = 0" style="text;strokeColor=none;fillColor=none;align=left;verticalAlign=top;spacingLeft=4;spacingRight=4;overflow=hidden;rotatable=0;points=[[0,0.5],[1,0.5]];portConstraint=eastwest;whiteSpace=wrap;html=1;" vertex="1" parent="TAoXhGsMEbnR37dpOqKy-1">
          <mxGeometry y="294" width="210" height="26" as="geometry" />
        </mxCell>
        <mxCell id="TAoXhGsMEbnR37dpOqKy-11" value="- track_cartesian_trajectory()" style="text;strokeColor=none;fillColor=none;align=left;verticalAlign=top;spacingLeft=4;spacingRight=4;overflow=hidden;rotatable=0;points=[[0,0.5],[1,0.5]];portConstraint=eastwest;whiteSpace=wrap;html=1;" vertex="1" parent="TAoXhGsMEbnR37dpOqKy-1">
          <mxGeometry y="320" width="210" height="26" as="geometry" />
        </mxCell>
        <mxCell id="TAoXhGsMEbnR37dpOqKy-6" value="- track_joint_trajectory()" style="text;strokeColor=none;fillColor=none;align=left;verticalAlign=top;spacingLeft=4;spacingRight=4;overflow=hidden;rotatable=0;points=[[0,0.5],[1,0.5]];portConstraint=eastwest;whiteSpace=wrap;html=1;" vertex="1" parent="TAoXhGsMEbnR37dpOqKy-1">
          <mxGeometry y="346" width="210" height="26" as="geometry" />
        </mxCell>
        <mxCell id="TAoXhGsMEbnR37dpOqKy-7" value="- read_joint_values()" style="text;strokeColor=none;fillColor=none;align=left;verticalAlign=top;spacingLeft=4;spacingRight=4;overflow=hidden;rotatable=0;points=[[0,0.5],[1,0.5]];portConstraint=eastwest;whiteSpace=wrap;html=1;" vertex="1" parent="TAoXhGsMEbnR37dpOqKy-1">
          <mxGeometry y="372" width="210" height="26" as="geometry" />
        </mxCell>
        <mxCell id="TAoXhGsMEbnR37dpOqKy-14" style="edgeStyle=orthogonalEdgeStyle;rounded=0;orthogonalLoop=1;jettySize=auto;html=1;curved=1;" edge="1" parent="1" source="TAoXhGsMEbnR37dpOqKy-13" target="TAoXhGsMEbnR37dpOqKy-2">
          <mxGeometry relative="1" as="geometry" />
        </mxCell>
        <mxCell id="TAoXhGsMEbnR37dpOqKy-13" value="Joint trajectory tracking" style="shape=note;strokeWidth=2;fontSize=14;size=20;whiteSpace=wrap;html=1;fillColor=#fff2cc;strokeColor=#d6b656;fontColor=#666600;" vertex="1" parent="1">
          <mxGeometry x="430" y="720" width="110.00000000000001" height="80" as="geometry" />
        </mxCell>
        <mxCell id="TAoXhGsMEbnR37dpOqKy-23" style="edgeStyle=orthogonalEdgeStyle;rounded=0;orthogonalLoop=1;jettySize=auto;html=1;curved=1;" edge="1" parent="1" source="TAoXhGsMEbnR37dpOqKy-15" target="TAoXhGsMEbnR37dpOqKy-19">
          <mxGeometry relative="1" as="geometry" />
        </mxCell>
        <mxCell id="TAoXhGsMEbnR37dpOqKy-15" value="Handles request to move to a single position" style="shape=note;strokeWidth=2;fontSize=14;size=20;whiteSpace=wrap;html=1;fillColor=#fff2cc;strokeColor=#d6b656;fontColor=#666600;" vertex="1" parent="1">
          <mxGeometry x="540" y="545" width="110.00000000000001" height="80" as="geometry" />
        </mxCell>
        <mxCell id="TAoXhGsMEbnR37dpOqKy-22" style="edgeStyle=orthogonalEdgeStyle;rounded=0;orthogonalLoop=1;jettySize=auto;html=1;curved=1;" edge="1" parent="1" source="TAoXhGsMEbnR37dpOqKy-21" target="TAoXhGsMEbnR37dpOqKy-9">
          <mxGeometry relative="1" as="geometry" />
        </mxCell>
        <mxCell id="TAoXhGsMEbnR37dpOqKy-21" value="Cartesian trajectory tracking" style="shape=note;strokeWidth=2;fontSize=14;size=20;whiteSpace=wrap;html=1;fillColor=#fff2cc;strokeColor=#d6b656;fontColor=#666600;" vertex="1" parent="1">
          <mxGeometry x="450" y="450" width="110.00000000000001" height="80" as="geometry" />
        </mxCell>
        <mxCell id="TAoXhGsMEbnR37dpOqKy-25" style="edgeStyle=orthogonalEdgeStyle;rounded=0;orthogonalLoop=1;jettySize=auto;html=1;curved=1;" edge="1" parent="1" source="TAoXhGsMEbnR37dpOqKy-24" target="TAoXhGsMEbnR37dpOqKy-20">
          <mxGeometry relative="1" as="geometry" />
        </mxCell>
        <mxCell id="TAoXhGsMEbnR37dpOqKy-24" value="Handles request to move to single pose" style="shape=note;strokeWidth=2;fontSize=14;size=20;whiteSpace=wrap;html=1;fillColor=#fff2cc;strokeColor=#d6b656;fontColor=#666600;" vertex="1" parent="1">
          <mxGeometry x="320" y="440" width="110.00000000000001" height="80" as="geometry" />
        </mxCell>
        <mxCell id="TAoXhGsMEbnR37dpOqKy-27" style="edgeStyle=orthogonalEdgeStyle;rounded=0;orthogonalLoop=1;jettySize=auto;html=1;curved=1;" edge="1" parent="1" source="TAoXhGsMEbnR37dpOqKy-26" target="TAoXhGsMEbnR37dpOqKy-18">
          <mxGeometry relative="1" as="geometry" />
        </mxCell>
        <mxCell id="TAoXhGsMEbnR37dpOqKy-26" value="Tracks published transform in real time" style="shape=note;strokeWidth=2;fontSize=14;size=20;whiteSpace=wrap;html=1;fillColor=#fff2cc;strokeColor=#d6b656;fontColor=#666600;" vertex="1" parent="1">
          <mxGeometry x="10" y="440" width="110.00000000000001" height="80" as="geometry" />
        </mxCell>
        <mxCell id="TAoXhGsMEbnR37dpOqKy-34" style="edgeStyle=orthogonalEdgeStyle;rounded=0;orthogonalLoop=1;jettySize=auto;html=1;curved=1;dashed=1;" edge="1" parent="1" source="TAoXhGsMEbnR37dpOqKy-29" target="vpbeKz68ivnJ3yfsuHuT-35">
          <mxGeometry relative="1" as="geometry" />
        </mxCell>
        <mxCell id="TAoXhGsMEbnR37dpOqKy-29" value="KinematicTree" style="swimlane;fontStyle=1;align=center;verticalAlign=top;childLayout=stackLayout;horizontal=1;startSize=26;horizontalStack=0;resizeParent=1;resizeParentMax=0;resizeLast=0;collapsible=1;marginBottom=0;whiteSpace=wrap;html=1;" vertex="1" collapsed="1" parent="1">
          <mxGeometry x="40" y="160" width="110" height="30" as="geometry">
            <mxRectangle x="13.129999999999999" y="230" width="320" height="130" as="alternateBounds" />
          </mxGeometry>
        </mxCell>
        <mxCell id="TAoXhGsMEbnR37dpOqKy-30" value="+ resolve_endpoint_motion(Vector) : Vector" style="text;strokeColor=none;fillColor=none;align=left;verticalAlign=top;spacingLeft=4;spacingRight=4;overflow=hidden;rotatable=0;points=[[0,0.5],[1,0.5]];portConstraint=eastwest;whiteSpace=wrap;html=1;" vertex="1" parent="TAoXhGsMEbnR37dpOqKy-29">
          <mxGeometry y="26" width="320" height="26" as="geometry" />
        </mxCell>
        <mxCell id="TAoXhGsMEbnR37dpOqKy-31" value="+ track_endpoint_trajectory(Pose, Vector, Vector) : Vector" style="text;strokeColor=none;fillColor=none;align=left;verticalAlign=top;spacingLeft=4;spacingRight=4;overflow=hidden;rotatable=0;points=[[0,0.5],[1,0.5]];portConstraint=eastwest;whiteSpace=wrap;html=1;" vertex="1" parent="TAoXhGsMEbnR37dpOqKy-29">
          <mxGeometry y="52" width="320" height="26" as="geometry" />
        </mxCell>
        <mxCell id="TAoXhGsMEbnR37dpOqKy-32" value="+ track_joint_trajectory(vector, vector, vector) : Vector" style="text;strokeColor=none;fillColor=none;align=left;verticalAlign=top;spacingLeft=4;spacingRight=4;overflow=hidden;rotatable=0;points=[[0,0.5],[1,0.5]];portConstraint=eastwest;whiteSpace=wrap;html=1;" vertex="1" parent="TAoXhGsMEbnR37dpOqKy-29">
          <mxGeometry y="78" width="320" height="26" as="geometry" />
        </mxCell>
        <mxCell id="TAoXhGsMEbnR37dpOqKy-33" value="# compute_control_limits(int) : Limits" style="text;strokeColor=none;fillColor=none;align=left;verticalAlign=top;spacingLeft=4;spacingRight=4;overflow=hidden;rotatable=0;points=[[0,0.5],[1,0.5]];portConstraint=eastwest;whiteSpace=wrap;html=1;" vertex="1" parent="TAoXhGsMEbnR37dpOqKy-29">
          <mxGeometry y="104" width="320" height="26" as="geometry" />
        </mxCell>
      </root>
    </mxGraphModel>
  </diagram>
  <diagram id="Ekxgt9k9IgysNRMNP_Iu" name="methods">
    <mxGraphModel dx="1350" dy="706" grid="1" gridSize="10" guides="1" tooltips="1" connect="1" arrows="1" fold="1" page="1" pageScale="1" pageWidth="413" pageHeight="291" math="0" shadow="0">
      <root>
        <mxCell id="0" />
        <mxCell id="1" parent="0" />
        <mxCell id="yODJTxS-fVHRGjs4_0rk-1" style="edgeStyle=orthogonalEdgeStyle;rounded=0;orthogonalLoop=1;jettySize=auto;html=1;" edge="1" parent="1" source="yODJTxS-fVHRGjs4_0rk-2" target="yODJTxS-fVHRGjs4_0rk-4">
          <mxGeometry relative="1" as="geometry" />
        </mxCell>
        <mxCell id="yODJTxS-fVHRGjs4_0rk-2" value="Start" style="rounded=1;whiteSpace=wrap;html=1;arcSize=50;" vertex="1" parent="1">
          <mxGeometry x="40" y="560" width="120" height="50" as="geometry" />
        </mxCell>
        <mxCell id="yODJTxS-fVHRGjs4_0rk-3" style="edgeStyle=orthogonalEdgeStyle;rounded=0;orthogonalLoop=1;jettySize=auto;html=1;" edge="1" parent="1" source="yODJTxS-fVHRGjs4_0rk-4" target="yODJTxS-fVHRGjs4_0rk-6">
          <mxGeometry relative="1" as="geometry" />
        </mxCell>
        <mxCell id="yODJTxS-fVHRGjs4_0rk-4" value="Convert &lt;i&gt;float64[]&lt;/i&gt; to &lt;i&gt;PositionVector&lt;/i&gt;" style="rounded=0;whiteSpace=wrap;html=1;" vertex="1" parent="1">
          <mxGeometry x="40" y="640" width="120" height="60" as="geometry" />
        </mxCell>
        <mxCell id="yODJTxS-fVHRGjs4_0rk-5" style="edgeStyle=orthogonalEdgeStyle;rounded=0;orthogonalLoop=1;jettySize=auto;html=1;" edge="1" parent="1" source="yODJTxS-fVHRGjs4_0rk-6" target="yODJTxS-fVHRGjs4_0rk-7">
          <mxGeometry relative="1" as="geometry" />
        </mxCell>
        <mxCell id="yODJTxS-fVHRGjs4_0rk-6" value="&lt;div&gt;Call &lt;i&gt;move_to_&lt;/i&gt;&lt;/div&gt;&lt;div&gt;&lt;i&gt;joint_positions()&lt;br&gt;&lt;/i&gt;&lt;/div&gt;" style="rounded=0;whiteSpace=wrap;html=1;" vertex="1" parent="1">
          <mxGeometry x="40" y="730" width="120" height="60" as="geometry" />
        </mxCell>
        <mxCell id="yODJTxS-fVHRGjs4_0rk-7" value="End" style="rounded=1;whiteSpace=wrap;html=1;arcSize=50;" vertex="1" parent="1">
          <mxGeometry x="40" y="820" width="120" height="50" as="geometry" />
        </mxCell>
        <mxCell id="yODJTxS-fVHRGjs4_0rk-8" style="edgeStyle=orthogonalEdgeStyle;rounded=0;orthogonalLoop=1;jettySize=auto;html=1;" edge="1" parent="1" source="yODJTxS-fVHRGjs4_0rk-9" target="yODJTxS-fVHRGjs4_0rk-12">
          <mxGeometry relative="1" as="geometry" />
        </mxCell>
        <mxCell id="yODJTxS-fVHRGjs4_0rk-9" value="Start" style="rounded=1;whiteSpace=wrap;html=1;arcSize=50;" vertex="1" parent="1">
          <mxGeometry x="294" y="560" width="120" height="50" as="geometry" />
        </mxCell>
        <mxCell id="yODJTxS-fVHRGjs4_0rk-10" style="edgeStyle=orthogonalEdgeStyle;rounded=0;orthogonalLoop=1;jettySize=auto;html=1;" edge="1" parent="1" source="yODJTxS-fVHRGjs4_0rk-12" target="yODJTxS-fVHRGjs4_0rk-17">
          <mxGeometry relative="1" as="geometry" />
        </mxCell>
        <mxCell id="yODJTxS-fVHRGjs4_0rk-11" style="edgeStyle=orthogonalEdgeStyle;rounded=0;orthogonalLoop=1;jettySize=auto;html=1;" edge="1" parent="1" source="yODJTxS-fVHRGjs4_0rk-12" target="yODJTxS-fVHRGjs4_0rk-15">
          <mxGeometry relative="1" as="geometry">
            <Array as="points">
              <mxPoint x="270" y="680" />
              <mxPoint x="270" y="965" />
            </Array>
          </mxGeometry>
        </mxCell>
        <mxCell id="yODJTxS-fVHRGjs4_0rk-12" value="&lt;div&gt;Inputs&lt;/div&gt;&lt;div&gt;sound?&lt;br&gt;&lt;/div&gt;" style="rhombus;whiteSpace=wrap;html=1;" vertex="1" parent="1">
          <mxGeometry x="314" y="640" width="80" height="80" as="geometry" />
        </mxCell>
        <mxCell id="yODJTxS-fVHRGjs4_0rk-13" style="edgeStyle=orthogonalEdgeStyle;rounded=0;orthogonalLoop=1;jettySize=auto;html=1;" edge="1" parent="1" source="yODJTxS-fVHRGjs4_0rk-14" target="yODJTxS-fVHRGjs4_0rk-15">
          <mxGeometry relative="1" as="geometry" />
        </mxCell>
        <mxCell id="yODJTxS-fVHRGjs4_0rk-14" value="&lt;div&gt;Call &lt;i&gt;track_joint_&lt;/i&gt;&lt;/div&gt;&lt;div&gt;&lt;i&gt;trajectory()&lt;/i&gt;&lt;/div&gt;" style="rounded=0;whiteSpace=wrap;html=1;" vertex="1" parent="1">
          <mxGeometry x="294" y="850" width="120" height="60" as="geometry" />
        </mxCell>
        <mxCell id="yODJTxS-fVHRGjs4_0rk-15" value="End" style="rounded=1;whiteSpace=wrap;html=1;arcSize=50;" vertex="1" parent="1">
          <mxGeometry x="294" y="940" width="120" height="50" as="geometry" />
        </mxCell>
        <mxCell id="yODJTxS-fVHRGjs4_0rk-16" style="edgeStyle=orthogonalEdgeStyle;rounded=0;orthogonalLoop=1;jettySize=auto;html=1;" edge="1" parent="1" source="yODJTxS-fVHRGjs4_0rk-17" target="yODJTxS-fVHRGjs4_0rk-14">
          <mxGeometry relative="1" as="geometry" />
        </mxCell>
        <mxCell id="yODJTxS-fVHRGjs4_0rk-17" value="&lt;i&gt;read_joint_values()&lt;/i&gt;" style="rounded=0;whiteSpace=wrap;html=1;" vertex="1" parent="1">
          <mxGeometry x="294" y="750" width="120" height="60" as="geometry" />
        </mxCell>
        <mxCell id="yODJTxS-fVHRGjs4_0rk-18" style="edgeStyle=orthogonalEdgeStyle;rounded=0;orthogonalLoop=1;jettySize=auto;html=1;" edge="1" parent="1" source="yODJTxS-fVHRGjs4_0rk-19" target="yODJTxS-fVHRGjs4_0rk-21">
          <mxGeometry relative="1" as="geometry" />
        </mxCell>
        <mxCell id="yODJTxS-fVHRGjs4_0rk-19" value="Start" style="rounded=1;whiteSpace=wrap;html=1;arcSize=50;" vertex="1" parent="1">
          <mxGeometry x="540" y="560" width="120" height="50" as="geometry" />
        </mxCell>
        <mxCell id="yODJTxS-fVHRGjs4_0rk-20" style="edgeStyle=orthogonalEdgeStyle;rounded=0;orthogonalLoop=1;jettySize=auto;html=1;" edge="1" parent="1" source="yODJTxS-fVHRGjs4_0rk-21" target="yODJTxS-fVHRGjs4_0rk-23">
          <mxGeometry relative="1" as="geometry" />
        </mxCell>
        <mxCell id="yODJTxS-fVHRGjs4_0rk-21" value="&lt;div&gt;Query joint&lt;/div&gt;&lt;div&gt;trajectory&lt;/div&gt;" style="rounded=0;whiteSpace=wrap;html=1;" vertex="1" parent="1">
          <mxGeometry x="540" y="660" width="120" height="60" as="geometry" />
        </mxCell>
        <mxCell id="yODJTxS-fVHRGjs4_0rk-22" style="edgeStyle=orthogonalEdgeStyle;rounded=0;orthogonalLoop=1;jettySize=auto;html=1;" edge="1" parent="1" source="yODJTxS-fVHRGjs4_0rk-23" target="yODJTxS-fVHRGjs4_0rk-25">
          <mxGeometry relative="1" as="geometry" />
        </mxCell>
        <mxCell id="yODJTxS-fVHRGjs4_0rk-23" value="Solve feedback control" style="rounded=0;whiteSpace=wrap;html=1;" vertex="1" parent="1">
          <mxGeometry x="540" y="760" width="120" height="60" as="geometry" />
        </mxCell>
        <mxCell id="yODJTxS-fVHRGjs4_0rk-24" style="edgeStyle=orthogonalEdgeStyle;rounded=0;orthogonalLoop=1;jettySize=auto;html=1;" edge="1" parent="1" source="yODJTxS-fVHRGjs4_0rk-25" target="yODJTxS-fVHRGjs4_0rk-28">
          <mxGeometry relative="1" as="geometry" />
        </mxCell>
        <mxCell id="yODJTxS-fVHRGjs4_0rk-25" value="read_joint_values()" style="rounded=0;whiteSpace=wrap;html=1;fontStyle=2" vertex="1" parent="1">
          <mxGeometry x="540" y="860" width="120" height="60" as="geometry" />
        </mxCell>
        <mxCell id="yODJTxS-fVHRGjs4_0rk-26" style="edgeStyle=orthogonalEdgeStyle;rounded=0;orthogonalLoop=1;jettySize=auto;html=1;" edge="1" parent="1" source="yODJTxS-fVHRGjs4_0rk-28" target="yODJTxS-fVHRGjs4_0rk-29">
          <mxGeometry relative="1" as="geometry" />
        </mxCell>
        <mxCell id="yODJTxS-fVHRGjs4_0rk-27" style="edgeStyle=orthogonalEdgeStyle;rounded=0;orthogonalLoop=1;jettySize=auto;html=1;" edge="1" parent="1" source="yODJTxS-fVHRGjs4_0rk-28" target="yODJTxS-fVHRGjs4_0rk-21">
          <mxGeometry relative="1" as="geometry">
            <Array as="points">
              <mxPoint x="510" y="990" />
              <mxPoint x="510" y="690" />
            </Array>
          </mxGeometry>
        </mxCell>
        <mxCell id="yODJTxS-fVHRGjs4_0rk-28" value="Complete?" style="rhombus;whiteSpace=wrap;html=1;" vertex="1" parent="1">
          <mxGeometry x="560" y="950" width="80" height="80" as="geometry" />
        </mxCell>
        <mxCell id="yODJTxS-fVHRGjs4_0rk-29" value="End" style="rounded=1;whiteSpace=wrap;html=1;arcSize=50;" vertex="1" parent="1">
          <mxGeometry x="540" y="1060" width="120" height="50" as="geometry" />
        </mxCell>
        <mxCell id="yODJTxS-fVHRGjs4_0rk-30" value="MoveToJointPosition" style="shape=umlFrame;whiteSpace=wrap;html=1;pointerEvents=0;width=130;height=30;" vertex="1" parent="1">
          <mxGeometry x="10" y="510" width="190" height="390" as="geometry" />
        </mxCell>
        <mxCell id="yODJTxS-fVHRGjs4_0rk-31" value="MoveToJointPositions" style="shape=umlFrame;whiteSpace=wrap;html=1;pointerEvents=0;width=141;height=30;" vertex="1" parent="1">
          <mxGeometry x="254" y="510" width="190" height="500" as="geometry" />
        </mxCell>
        <mxCell id="yODJTxS-fVHRGjs4_0rk-32" style="rounded=0;orthogonalLoop=1;jettySize=auto;html=1;exitX=1;exitY=1;exitDx=0;exitDy=0;entryX=-0.005;entryY=1.006;entryDx=0;entryDy=0;entryPerimeter=0;endArrow=none;endFill=0;" edge="1" parent="1" source="yODJTxS-fVHRGjs4_0rk-6" target="yODJTxS-fVHRGjs4_0rk-31">
          <mxGeometry relative="1" as="geometry" />
        </mxCell>
        <mxCell id="yODJTxS-fVHRGjs4_0rk-33" style="rounded=0;orthogonalLoop=1;jettySize=auto;html=1;exitX=1;exitY=0;exitDx=0;exitDy=0;entryX=-0.005;entryY=0;entryDx=0;entryDy=0;entryPerimeter=0;endArrow=none;endFill=0;" edge="1" parent="1" source="yODJTxS-fVHRGjs4_0rk-6" target="yODJTxS-fVHRGjs4_0rk-31">
          <mxGeometry relative="1" as="geometry" />
        </mxCell>
        <mxCell id="yODJTxS-fVHRGjs4_0rk-34" value="track_joint_trajectory()" style="shape=umlFrame;whiteSpace=wrap;html=1;pointerEvents=0;width=141;height=30;" vertex="1" parent="1">
          <mxGeometry x="496" y="510" width="190" height="620" as="geometry" />
        </mxCell>
        <mxCell id="yODJTxS-fVHRGjs4_0rk-35" style="rounded=0;orthogonalLoop=1;jettySize=auto;html=1;exitX=1;exitY=0;exitDx=0;exitDy=0;entryX=0.003;entryY=0;entryDx=0;entryDy=0;entryPerimeter=0;endArrow=none;endFill=0;" edge="1" parent="1" source="yODJTxS-fVHRGjs4_0rk-14" target="yODJTxS-fVHRGjs4_0rk-34">
          <mxGeometry relative="1" as="geometry" />
        </mxCell>
        <mxCell id="yODJTxS-fVHRGjs4_0rk-36" style="rounded=0;orthogonalLoop=1;jettySize=auto;html=1;exitX=1;exitY=1;exitDx=0;exitDy=0;endArrow=none;endFill=0;entryX=-0.008;entryY=1.002;entryDx=0;entryDy=0;entryPerimeter=0;" edge="1" parent="1" source="yODJTxS-fVHRGjs4_0rk-14" target="yODJTxS-fVHRGjs4_0rk-34">
          <mxGeometry relative="1" as="geometry">
            <mxPoint x="424" y="860" as="sourcePoint" />
            <mxPoint x="510" y="1130" as="targetPoint" />
          </mxGeometry>
        </mxCell>
        <mxCell id="yODJTxS-fVHRGjs4_0rk-37" value="No" style="text;html=1;align=center;verticalAlign=middle;whiteSpace=wrap;rounded=0;" vertex="1" parent="1">
          <mxGeometry x="267" y="655" width="60" height="30" as="geometry" />
        </mxCell>
        <mxCell id="yODJTxS-fVHRGjs4_0rk-38" value="No" style="text;html=1;align=center;verticalAlign=middle;whiteSpace=wrap;rounded=0;" vertex="1" parent="1">
          <mxGeometry x="511" y="970" width="50" height="20" as="geometry" />
        </mxCell>
        <mxCell id="yODJTxS-fVHRGjs4_0rk-39" value="Yes" style="text;html=1;align=center;verticalAlign=middle;whiteSpace=wrap;rounded=0;" vertex="1" parent="1">
          <mxGeometry x="347" y="717" width="60" height="30" as="geometry" />
        </mxCell>
        <mxCell id="yODJTxS-fVHRGjs4_0rk-40" value="Yes" style="text;html=1;align=center;verticalAlign=middle;whiteSpace=wrap;rounded=0;" vertex="1" parent="1">
          <mxGeometry x="590" y="1030" width="60" height="30" as="geometry" />
        </mxCell>
      </root>
    </mxGraphModel>
  </diagram>
</mxfile>
